HIERARCHY
ROOT Hips
{
	OFFSET 0.000000 0.000000 0.000000 
	CHANNELS 6 Xposition Yposition Zposition Zrotation Yrotation Xrotation
	JOINT LeftUpLeg
	{
		OFFSET 1.363060 -1.794630 0.839290 
		CHANNELS 3 Zrotation Yrotation Xrotation
		JOINT LeftLeg
		{
			OFFSET 2.448110 -6.726130 0.000000 
			CHANNELS 3 Zrotation Yrotation Xrotation
			JOINT LeftFoot
			{
				OFFSET 2.562200 -7.039590 0.000000 
				CHANNELS 3 Zrotation Yrotation Xrotation
				JOINT LeftToeBase
				{
					OFFSET 0.157640 -0.433110 2.322550 
					CHANNELS 3 Zrotation Yrotation Xrotation
					End Site
					{
						OFFSET 0.000000 0.000000 0.000000 
					}
				}
			}
		}
	}
	JOINT RightUpLeg
	{
		OFFSET -1.305520 -1.794630 0.839290 
		CHANNELS 3 Zrotation Yrotation Xrotation
		JOINT RightLeg
		{
			OFFSET -2.542530 -6.985550 0.000000 
			CHANNELS 3 Zrotation Yrotation Xrotation
			JOINT RightFoot
			{
				OFFSET -2.568260 -7.056230 0.000000 
				CHANNELS 3 Zrotation Yrotation Xrotation
				JOINT RightToeBase
				{
					OFFSET -0.164730 -0.452590 2.363150 
					CHANNELS 3 Zrotation Yrotation Xrotation
					End Site
					{
						OFFSET 0.000000 0.000000 0.000000 
					}
				}
			}
		}
	}
	JOINT Spine
	{
		OFFSET 0.028270 2.035590 -0.193380 
		CHANNELS 3 Zrotation Yrotation Xrotation
		JOINT Spine1
		{
			OFFSET 0.056720 2.048850 -0.042750 
			CHANNELS 3 Zrotation Yrotation Xrotation
			JOINT Neck1
			{
				OFFSET -0.054170 1.746240 0.172020 
				CHANNELS 3 Zrotation Yrotation Xrotation
				JOINT Head
				{
					OFFSET 0.104070 1.761360 -0.123970 
					CHANNELS 3 Zrotation Yrotation Xrotation
					End Site
					{
						OFFSET 0.000000 0.000000 0.000000 
					}
				}
			}
			JOINT LeftArm
			{
				OFFSET 3.362410 1.200890 -0.311210 
				CHANNELS 3 Zrotation Yrotation Xrotation
				JOINT LeftForeArm
				{
					OFFSET 4.983000 -0.000000 -0.000000 
					CHANNELS 3 Zrotation Yrotation Xrotation
					JOINT LeftHand
					{
						OFFSET 3.483560 -0.000000 -0.000000 
						CHANNELS 3 Zrotation Yrotation Xrotation
						JOINT LeftHandIndex1
						{
							OFFSET 0.715260 -0.000000 -0.000000 
							CHANNELS 3 Zrotation Yrotation Xrotation
							End Site
							{
								OFFSET 0.000000 0.000000 0.000000 
							}
						}
					}
				}
			}
			JOINT RightArm
			{
				OFFSET -3.136600 1.374050 -0.404650 
				CHANNELS 3 Zrotation Yrotation Xrotation
				JOINT RightForeArm
				{
					OFFSET -5.241900 -0.000000 -0.000000 
					CHANNELS 3 Zrotation Yrotation Xrotation
					JOINT RightHand
					{
						OFFSET -3.444170 -0.000000 -0.000000 
						CHANNELS 3 Zrotation Yrotation Xrotation
						JOINT RightHandIndex1
						{
							OFFSET -0.622530 -0.000000 -0.000000 
							CHANNELS 3 Zrotation Yrotation Xrotation
							End Site
							{
								OFFSET 0.000000 0.000000 0.000000 
							}
						}
					}
				}
			}
		}
	}
}
MOTION
Frames: 12
Frame Time: 0.041667
0.383814 17.552179 -1.797300 2.099843 3.211474 19.239496 -17.808149 2.278747 -18.226071 0.340521 9.382816 25.420364 3.194889 -12.820220 -10.763725 0.049800 -1.440600 -3.962000 14.184665 5.269811 -46.740081 -2.773770 -14.303033 38.121258 0.306279 -4.138633 -7.541883 -0.211900 2.963500 -8.177000 0.836203 -1.542961 -9.560463 -0.250725 -0.579331 -0.838855 5.475288 -2.595947 12.633588 0.975600 -0.990900 4.372800 -96.653284 -7.269030 36.179511 18.848099 -36.582873 -5.939572 -0.115209 -0.645293 -5.146905 -7.125000 0.000000 0.000000 101.931010 -18.541590 -42.069531 -2.903722 10.709340 0.063826 -1.628415 0.241808 47.677968 7.125000 0.000000 0.000000 
0.383599 17.531095 -1.548810 2.149072 3.351319 19.233084 -17.793708 2.844463 -17.113718 0.214585 9.064968 24.542718 3.240311 -13.220942 -10.599905 0.044800 -1.365300 -3.754600 14.063991 5.136788 -46.738705 -1.969188 -13.370203 34.829716 0.452295 -4.870515 -6.718395 -0.429400 4.205100 -11.654500 0.813007 -1.496104 -9.540389 -0.305250 -0.567922 -0.810684 5.505449 -2.637580 12.382085 0.978900 -1.017600 4.158200 -96.278240 -8.044177 37.736426 19.797773 -37.644668 -6.438875 -0.077209 -0.625016 -6.699210 -7.125000 0.000000 0.000000 102.029108 -19.454608 -42.249351 -3.026680 10.986108 0.023660 -1.594247 0.239648 46.824948 7.125000 0.000000 0.000000 
0.376392 17.506354 -1.307958 2.206711 3.510241 19.138104 -17.797915 3.562237 -16.044444 0.110273 8.797531 23.806436 3.232777 -12.834512 -11.004275 0.175900 -2.701900 -7.450000 13.758788 5.233054 -46.481529 -1.236210 -12.392011 31.570235 0.470469 -4.921765 -6.092909 -0.411300 4.117000 -11.406200 0.809548 -1.491442 -9.440428 -0.322303 -0.584856 -0.586371 5.499132 -2.701315 12.228678 0.948100 -1.046700 4.148900 -95.966140 -9.279109 39.002946 20.629994 -38.562138 -6.905168 -0.052125 -0.592357 -7.774720 -7.125000 0.000000 0.000000 102.148249 -19.827565 -42.769285 -3.056140 11.043303 0.005590 -1.569518 0.255589 46.566368 7.125000 0.000000 0.000000 
0.367141 17.486883 -1.084963 2.505576 4.161636 19.150371 -17.897678 4.004206 -15.079574 -0.009623 8.509923 23.006765 3.211635 -12.510417 -11.275107 0.445200 -4.281100 -11.868900 13.167021 4.984236 -46.352037 -0.605722 -11.398961 28.432482 0.442865 -4.726957 -5.432448 -0.439500 4.254100 -11.792600 0.855219 -1.774398 -9.407392 -0.219437 -0.736870 -0.526671 5.449157 -2.731040 12.134840 0.894400 -1.059100 4.162400 -95.718463 -10.347852 39.622578 21.468296 -39.450901 -7.379060 -0.053392 -0.564233 -7.726416 -7.125000 0.000000 0.000000 102.139121 -20.242855 -42.145199 -3.126075 11.220954 -0.011625 -1.573994 0.210498 45.071576 7.125000 0.000000 0.000000 
0.347025 17.474835 -0.882084 2.919452 5.446468 19.483956 -17.801743 3.704103 -14.266560 -0.148805 8.171229 22.068666 3.248910 -13.281241 -10.575863 0.463600 -4.367600 -12.113200 12.339689 4.623791 -46.604610 -0.088198 -10.451046 25.524862 0.489892 -4.975561 -4.615725 -0.424300 4.180400 -11.584800 0.943466 -2.356600 -9.523220 -0.080974 -1.027267 -0.817962 5.440029 -2.723296 11.956947 0.855200 -1.056300 4.039600 -95.383083 -11.242356 39.900842 22.265152 -40.256290 -7.835013 -0.075783 -0.539502 -6.920824 -7.125000 0.000000 0.000000 102.207695 -20.924507 -41.506425 -3.274066 11.520825 -0.037372 -1.591490 0.111608 43.499285 7.125000 0.000000 0.000000 
0.347885 17.454719 -0.615845 3.018780 5.245505 19.068361 -17.853150 4.269387 -12.575834 -0.252107 7.818213 21.137913 3.242623 -13.721310 -10.165923 0.323100 -3.653500 -10.103900 12.052805 4.703423 -46.020507 0.331695 -9.584850 22.960157 0.293815 -3.901835 -4.061168 -0.410200 4.111400 -11.390400 0.870895 -2.193150 -9.339642 -0.230611 -0.979249 -0.499535 5.462200 -2.707239 11.627573 0.843500 -1.054200 3.795900 -95.080454 -12.367791 40.281494 23.056470 -41.080011 -8.318821 -0.076197 -0.508418 -6.615824 -7.125000 0.000000 0.000000 102.341411 -21.443311 -42.249234 -3.254703 11.469555 -0.030377 -1.610631 0.050732 43.606395 7.125000 0.000000 0.000000 
0.345304 17.444393 -0.373918 3.367341 5.701129 19.104156 -17.978109 4.148920 -11.213345 -0.373113 7.477132 20.223949 3.213766 -14.069104 -9.695981 0.217800 -3.004100 -8.290300 11.550710 4.284562 -45.916376 0.663703 -8.752102 20.568514 0.074993 -2.705231 -3.709594 -0.409200 4.106500 -11.376500 0.868864 -2.352465 -9.259469 -0.208919 -1.078427 -0.279375 5.489763 -2.726133 11.356429 0.856400 -1.071100 3.648900 -94.935716 -13.268697 40.649305 23.702724 -41.721196 -8.694701 -0.089306 -0.500272 -6.318587 -7.125000 0.000000 0.000000 102.353078 -21.689314 -43.578005 -3.173950 11.212346 -0.005597 -1.612825 0.061147 44.326904 7.125000 0.000000 0.000000 
0.348208 17.432452 -0.131237 3.381989 6.604051 19.318555 -17.651075 3.978059 -10.090793 -0.503854 7.117838 19.274074 3.157846 -13.608613 -9.666568 0.475500 -4.422200 -12.267500 11.539223 3.505769 -46.215431 0.913272 -8.022995 18.515451 -0.157279 -1.400691 -3.155988 -0.403200 4.076500 -11.292100 0.932032 -2.692342 -9.323234 -0.326890 -1.264572 -0.354733 5.610860 -2.718056 11.296883 0.951900 -1.071000 3.629000 -94.797861 -13.664686 40.902110 24.585847 -42.538190 -9.211980 -0.099843 -0.486904 -6.284731 -7.125000 0.000000 0.000000 102.320483 -22.229068 -43.630085 -3.224446 11.307229 -0.015561 -1.609583 0.037940 43.615345 7.125000 0.000000 0.000000 
0.340248 17.407711 0.101655 3.274574 7.392011 19.625417 -17.177681 3.601912 -9.113962 -0.623620 6.775474 18.393270 3.086485 -13.407124 -9.100250 0.626100 -5.063400 -14.089500 11.618231 3.064356 -46.764255 1.092498 -7.423991 16.829244 -0.370541 -0.160852 -2.645632 -0.353800 3.821700 -10.575700 1.008266 -3.002140 -9.466957 -0.393238 -1.422503 -0.668868 5.686281 -2.693002 11.180093 1.009800 -1.064900 3.529100 -94.656766 -14.064780 41.141564 25.215951 -43.092199 -9.580056 -0.095728 -0.483931 -6.482973 -7.125000 0.000000 0.000000 102.313538 -23.095776 -42.379033 -3.353861 11.655276 -0.052768 -1.599151 -0.038008 41.616176 7.125000 0.000000 0.000000 
0.324004 17.381679 0.334977 3.528038 7.710607 19.873823 -17.170108 3.129946 -8.089693 -0.737261 6.487918 17.654764 2.929557 -12.864881 -8.344313 0.804100 -5.723100 -15.983000 11.203374 3.053522 -47.049811 1.220158 -6.895791 15.348953 -0.536325 0.825058 -2.203338 -0.430600 4.211200 -11.671500 1.033852 -3.141034 -9.515225 -0.266798 -1.491326 -0.728975 5.533512 -2.748007 11.143158 0.893600 -1.091400 3.516800 -94.611453 -14.839445 41.409107 25.638843 -43.473453 -9.834838 -0.077989 -0.479952 -6.883810 -7.125000 0.000000 0.000000 102.383596 -23.472197 -42.425906 -3.379340 11.689341 -0.054920 -1.596432 -0.053715 41.139516 7.125000 0.000000 0.000000 
0.322068 17.358013 0.597773 3.902766 7.919655 20.004851 -17.355667 2.898210 -6.982230 -0.800788 6.275555 17.124487 2.841838 -12.934086 -7.603975 0.830000 -5.812400 -16.241100 11.299461 2.256050 -47.409903 1.300460 -6.447597 14.150078 -0.793927 2.468920 -1.688196 -0.882000 5.987000 -16.746800 1.023928 -3.247173 -9.468587 -0.259409 -1.565099 -0.437484 5.298972 -2.803151 11.256119 0.731500 -1.112800 3.609600 -94.533332 -15.570784 41.528081 26.172507 -43.964076 -10.171125 -0.075366 -0.467923 -6.949556 -7.125000 0.000000 0.000000 102.408994 -23.590695 -43.382402 -3.394960 11.658439 -0.059041 -1.588335 -0.054724 41.295474 7.125000 0.000000 0.000000 
0.327985 17.339080 0.867992 3.913208 8.503586 20.112654 -17.034798 2.667946 -5.894834 -0.839228 6.081948 16.654841 2.841413 -13.258004 -7.234191 1.077600 -6.598400 -18.531000 12.466503 0.591013 -48.257246 1.334580 -6.189952 13.497595 -1.134123 4.823444 -1.668929 -1.575200 7.918800 -22.467600 1.073825 -3.486172 -9.474671 -0.428370 -1.708622 -0.303576 5.029159 -2.809865 11.239057 0.588200 -1.122000 3.571000 -94.488136 -15.847517 41.434875 26.835489 -44.540194 -10.582266 -0.083871 -0.459443 -6.761978 -7.125000 0.000000 0.000000 102.269415 -24.006375 -43.097753 -3.449528 11.804875 -0.087358 -1.566545 -0.098878 40.190560 7.125000 0.000000 0.000000 
